<svg width="16" height="16" fill="none" xmlns="http://www.w3.org/2000/svg"><path fill-rule="evenodd" clip-rule="evenodd" d="M12.779 16c-.175-.047-.52-.1-.83-.231C6.495 13.467 2.532 9.696.282 4.278-.47 2.462.317.929 2.22.3c.34-.112.674-.12 1.012 0 .811.293 2.865 3.066 2.91 3.896.035.635-.405.979-.842 1.27-.827.551-.832 1.25-.479 2.027.8 1.76 2.163 2.969 3.927 3.753.641.286 1.254.257 1.691-.392.779-1.157 1.734-1.1 2.778-.382.523.36 1.054.712 1.554 1.105.674.534 1.529.979 1.126 2.097-.421 1.165-1.875 2.337-3.117 2.325zM8.769.012c3.83.125 7.128 3.562 7.08 7.27-.004.364.13.902-.423.892-.53-.01-.391-.557-.439-.92C14.48 3.317 12.642 1.46 8.656.857c-.332-.049-.835.02-.81-.407.037-.635.635-.398.924-.44v.002zm5.115 6.605c-.038.272.125.738-.324.805-.606.091-.487-.453-.547-.803-.405-2.394-1.262-3.272-3.725-3.812-.361-.079-.926-.023-.832-.571.089-.522.595-.343.978-.299 2.46.29 4.47 2.382 4.45 4.68zm-1.87-.435c.01.303-.023.623-.39.665-.262.03-.436-.186-.463-.455-.102-.987-.632-1.571-1.643-1.73-.302-.047-.6-.143-.459-.543.095-.269.345-.296.601-.302 1.092-.027 2.37 1.255 2.353 2.365z" fill="#fff"/></svg>